<svg width="43" height="70" viewBox="0 0 43 70" fill="none" xmlns="http://www.w3.org/2000/svg">
<path d="M18.5704 56.5586C17.9387 53.2135 16.3264 50.2076 15.1537 47.0482C14.8186 46.1877 14.557 45.299 14.372 44.3922C14.2818 43.9429 14.2281 43.4868 14.2115 43.0285C14.2044 42.5789 14.2254 42.1294 14.2743 41.6826C14.2743 41.5184 14.1312 41.397 14.0823 41.5826C13.688 43.182 14.0823 44.9634 14.5988 46.4842C15.1363 48.0871 15.8378 49.6293 16.4834 51.1894C17.7607 54.2845 18.9264 57.5903 18.4099 60.9996C18.1446 62.7845 17.4536 64.7195 17.8619 66.533C17.8619 66.5651 17.9317 66.9828 18.0574 67.5397C18.0574 67.5683 18.0329 66.5223 18.026 66.4687C17.9009 65.6194 17.9412 64.7531 18.1446 63.9198C18.2947 63.113 18.4936 62.3133 18.6297 61.5065C18.9102 59.8677 18.8901 58.1898 18.5704 56.5586V56.5586Z" fill="#F0F0F0"/>
<path d="M28.0771 35.685C26.374 38.5802 25.5504 42.0466 25.2014 45.3738C24.9361 48.7189 25.2014 52.1567 24.0043 55.3697C23.3066 57.4231 22.3454 59.3726 21.1461 61.1673C19.956 63.0736 17.8934 64.8086 18.0959 67.2362C18.0959 67.3076 18.2006 67.3433 18.2145 67.2576C18.5147 65.0585 19.9281 63.3307 21.167 61.6135C22.3841 59.8607 23.3764 57.9555 24.1195 55.9444C25.8645 51.7426 24.971 47.1231 25.9273 42.7642C26.4459 40.3702 27.2524 38.0511 28.3284 35.8599C28.3633 35.7278 28.1678 35.5422 28.0771 35.685Z" fill="#F0F0F0"/>
<path d="M21.659 54.4772C21.5229 51.3392 20.3678 48.3726 20.3259 45.2239C20.284 42.0752 20.7133 38.8622 19.9769 35.7457C18.6961 31.219 18.033 26.5281 18.5041 21.8229C18.4832 21.3659 18.7449 20.502 18.4309 20.652C17.7922 23.7078 18.0016 26.9279 18.4029 30.0124C18.8043 33.0968 20.0955 36.0456 20.0746 39.2014C20.0537 42.3572 19.6419 45.4738 20.3259 48.5582C21.0099 51.6427 21.7882 54.852 21.0239 58.0007C20.5492 60.821 18.3401 62.5845 18.0225 65.7832C18.0168 66.2731 18.0601 66.7624 18.1517 67.2433C18.1625 67.1079 18.1625 66.9718 18.1517 66.8363C18.2215 62.6345 22.1476 60.0749 21.659 54.4772Z" fill="#F0F0F0"/>
<path d="M19.4394 68.989C19.3068 68.9211 19.1358 68.9283 19.0207 68.839C18.9055 68.7498 18.9229 68.5677 18.9404 68.4214C18.9645 68.2912 18.9449 68.1566 18.8845 68.0394C18.8147 67.9108 18.6996 67.8823 18.5914 67.8073C18.4678 67.7008 18.378 67.5592 18.3331 67.4003C18.5534 67.4959 18.7924 67.5374 19.0311 67.5217C19.1619 67.5265 19.292 67.4992 19.4104 67.4421C19.5288 67.3849 19.6321 67.2996 19.7117 67.1933C19.7623 67.0681 19.7694 66.929 19.732 66.7991C19.6945 66.6692 19.6147 66.5563 19.5057 66.4793C19.3887 66.3899 19.2495 66.3358 19.1039 66.3231C18.9583 66.3105 18.8122 66.3399 18.6821 66.4079C18.5455 66.4754 18.426 66.5744 18.3331 66.6971C18.2848 66.7617 18.2427 66.8311 18.2075 66.9041C18.1859 66.9529 18.1672 67.0029 18.1517 67.0541V67.0541C18.1205 66.8263 18.0315 66.6109 17.8934 66.4293C17.8094 66.3195 17.7039 66.2289 17.5838 66.1631C17.4636 66.0973 17.3313 66.0579 17.1954 66.0473C17.1328 66.0373 17.0689 66.0407 17.0077 66.0574C16.9464 66.0742 16.8893 66.1039 16.84 66.1446C16.7907 66.1853 16.7503 66.2361 16.7213 66.2937C16.6924 66.3514 16.6755 66.4146 16.6719 66.4793C16.6959 66.615 16.7524 66.7425 16.8365 66.8503C16.9205 66.9581 17.0295 67.0429 17.1535 67.0969C17.3973 67.2233 17.6628 67.2997 17.9353 67.3218C17.8794 67.4253 17.8445 67.5539 17.7992 67.6467C17.6421 67.9501 17.3385 67.6788 17.1012 67.6288C16.808 67.5681 16.644 67.7609 16.5184 67.9858C16.493 68.0474 16.4539 68.1021 16.4043 68.1455C16.3546 68.1889 16.2956 68.2198 16.2322 68.2357C16.1137 68.2591 15.9909 68.2415 15.8832 68.1857C15.8657 68.1857 15.8553 68.2107 15.8658 68.2214C15.9403 68.3091 16.0419 68.3679 16.1537 68.388C16.2655 68.4082 16.3807 68.3884 16.48 68.3321C16.7278 68.2036 16.7941 67.7609 17.1361 67.8573C17.2804 67.9234 17.4284 67.9806 17.5793 68.0287C17.6416 68.0399 17.7056 68.0361 17.7662 68.0175C17.8269 67.9989 17.8824 67.9661 17.9283 67.9216C17.9989 67.8373 18.0512 67.7388 18.0819 67.6324C18.0897 67.6103 18.099 67.5889 18.1098 67.5681C18.1443 67.6498 18.1888 67.7266 18.2424 67.7966C18.3184 67.8971 18.4133 67.9808 18.5216 68.0429C18.5639 68.0555 18.6023 68.0788 18.6333 68.1108C18.6493 68.1716 18.6493 68.2356 18.6333 68.2964C18.6001 68.4348 18.6001 68.5793 18.6333 68.7177C18.6771 68.8518 18.7645 68.9664 18.8811 69.0425C18.9969 69.1031 19.122 69.1429 19.251 69.1603C19.3207 69.1687 19.3882 69.1905 19.4499 69.2246C19.5232 69.2781 19.5232 69.3674 19.5267 69.4531V69.4709C19.6209 69.4709 19.6349 69.3424 19.6244 69.271C19.6138 69.2136 19.592 69.1591 19.5602 69.1106C19.5284 69.0621 19.4873 69.0208 19.4394 68.989V68.989ZM18.3645 67.104C18.4134 67.0434 18.4553 66.9755 18.5041 66.9148C18.5894 66.8155 18.691 66.7322 18.8043 66.6685C18.9012 66.606 19.0154 66.5778 19.1295 66.5881C19.2436 66.5984 19.3513 66.6467 19.436 66.7256C19.4693 66.7661 19.4911 66.815 19.4991 66.8673C19.5071 66.9195 19.501 66.973 19.4813 67.0219C19.4487 67.0725 19.4061 67.1154 19.3562 67.148C19.3062 67.1806 19.2502 67.2021 19.1917 67.2111C18.9492 67.2838 18.6906 67.2776 18.4518 67.1933L18.3366 67.1433C18.3471 67.1311 18.3564 67.118 18.3645 67.104V67.104ZM17.9632 67.0719L17.7852 67.0469C17.674 67.0296 17.5643 67.0034 17.4572 66.9684C17.2691 66.9169 17.1032 66.8025 16.986 66.6435C16.8813 66.465 17.0663 66.3187 17.2303 66.3079C17.42 66.3082 17.6019 66.3852 17.7363 66.5221C17.8942 66.6707 18.0089 66.8609 18.0679 67.0719V67.0898L17.9632 67.0719Z" fill="#F0F0F0"/>
<path d="M18.0782 19.8808L17.108 21.5908C17.108 21.5908 17.108 22.4726 18.5947 22.5439C19.8546 22.6011 20.0849 21.8728 20.0849 21.8728L19.4602 20.045L18.0782 19.8808Z" fill="#BA68C8"/>
<path opacity="0.2" d="M18.0782 19.8808L17.108 21.5908C17.108 21.5908 17.108 22.4726 18.5947 22.5439C19.8546 22.6011 20.0849 21.8728 20.0849 21.8728L19.4602 20.045L18.0782 19.8808Z" fill="white"/>
<path d="M20.8178 2.80219C18.2736 -0.410759 13.8379 -1.17473 10.7388 2.17388C7.52808 5.6403 8.22956 12.7016 17.1045 19.2489C17.6772 19.6574 18.3517 19.8911 19.0493 19.9227C19.7468 19.9543 20.4388 19.7825 21.0446 19.4274C26.0562 16.6286 29.4205 12.3232 29.4798 7.87865C29.5357 2.73793 23.8052 0.171143 20.8178 2.80219Z" fill="#BA68C8"/>
<path opacity="0.3" d="M20.8178 2.80219C18.2736 -0.410759 13.8379 -1.17473 10.7388 2.17388C7.52808 5.6403 8.22956 12.7017 17.1045 19.2489C17.6772 19.6574 18.3517 19.8911 19.0493 19.9227C19.7468 19.9543 20.4388 19.7825 21.0446 19.4274C26.0562 16.6286 29.4205 12.3232 29.4798 7.87865C29.5357 2.73793 23.8052 0.171143 20.8178 2.80219Z" fill="white"/>
<path opacity="0.6" d="M25.6304 2.12394C23.9831 1.49563 22.1404 1.64556 20.8177 2.80223C21.2759 3.35392 21.5946 4.01219 21.746 4.71929C22.1997 3.72684 23.2816 1.68483 25.6304 2.12394Z" fill="#BA68C8"/>
<path opacity="0.6" d="M10.1525 6.87325C10.1525 3.26403 12.9445 0.27599 14.8116 0.0332336C13.2445 0.21675 11.7965 0.978268 10.7388 2.1752C7.52805 5.64162 8.22952 12.703 17.1045 19.2502C17.2649 19.3673 17.4341 19.4711 17.6105 19.5608C11.6497 15.0091 10.1455 10.129 10.1525 6.87325Z" fill="#BA68C8"/>
<path d="M19.2159 20.2699C18.6601 20.2802 18.1088 20.1669 17.6 19.9379C17.5796 19.9262 17.5617 19.9104 17.5472 19.8916C17.5328 19.8728 17.5221 19.8513 17.5158 19.8282C17.5095 19.8052 17.5076 19.7811 17.5104 19.7574C17.5132 19.7336 17.5205 19.7106 17.532 19.6898C17.5434 19.6689 17.5588 19.6506 17.5772 19.6358C17.5956 19.621 17.6166 19.61 17.6392 19.6036C17.6617 19.5971 17.6852 19.5952 17.7085 19.5981C17.7317 19.6009 17.7541 19.6084 17.7745 19.6202C18.4135 19.8957 19.1181 19.9702 19.7987 19.8343C19.8209 19.826 19.8445 19.8223 19.8681 19.8236C19.8917 19.8249 19.9148 19.831 19.9361 19.8417C19.9573 19.8524 19.9761 19.8674 19.9915 19.8858C20.0069 19.9041 20.0185 19.9255 20.0255 19.9486C20.0332 19.9713 20.0364 19.9954 20.0349 20.0194C20.0335 20.0434 20.0274 20.0668 20.017 20.0884C20.0066 20.11 19.9921 20.1293 19.9744 20.1451C19.9567 20.1609 19.9361 20.173 19.9139 20.1806C19.687 20.2468 19.4516 20.2769 19.2159 20.2699V20.2699Z" fill="#37474F"/>
<path d="M28.1329 37.577L28.3737 39.5369C28.3737 39.5369 28.0247 40.3437 26.6287 39.8225C25.4456 39.3763 25.5084 38.6123 25.5084 38.6123L26.7788 37.1844L28.1329 37.577Z" fill="#BA68C8"/>
<path opacity="0.1" d="M28.1329 37.577L28.3737 39.5369C28.3737 39.5369 28.0247 40.3437 26.6287 39.8225C25.4456 39.3763 25.5084 38.6123 25.5084 38.6123L26.7788 37.1844L28.1329 37.577Z" fill="black"/>
<path d="M32.1079 20.7555C35.6711 18.8099 40.051 19.8702 41.6319 24.197C43.2687 28.6701 39.9358 34.9068 29.267 37.4058C28.582 37.5516 27.8706 37.4947 27.216 37.2418C26.5615 36.9889 25.9909 36.5504 25.5712 35.9778C22.0219 31.4083 20.5492 26.0962 22.1964 21.9836C24.1019 17.2213 30.3454 17.1356 32.1079 20.7555Z" fill="#BA68C8"/>
<path opacity="0.1" d="M32.1079 20.7555C35.6711 18.8099 40.051 19.8702 41.6319 24.197C43.2687 28.6701 39.9358 34.9068 29.267 37.4058C28.582 37.5516 27.8706 37.4947 27.216 37.2418C26.5615 36.9889 25.9909 36.5504 25.5712 35.9778C22.0219 31.4083 20.5492 26.0962 22.1964 21.9836C24.1019 17.2213 30.3454 17.1356 32.1079 20.7555Z" fill="black"/>
<path opacity="0.2" d="M27.9338 18.2137C29.6787 18.2887 31.333 19.1633 32.1217 20.7555C31.4887 21.0794 30.9443 21.5591 30.5373 22.1513C30.4849 21.0554 30.2651 18.7456 27.9338 18.2137Z" fill="black"/>
<path opacity="0.2" d="M40.3825 28.7521C41.747 25.4214 40.3162 21.5587 38.6933 20.5948C40.0704 21.3877 41.1157 22.6691 41.6319 24.1969C43.2686 28.67 39.9358 34.9067 29.267 37.4057C29.0753 37.4502 28.8804 37.4788 28.6842 37.4913C35.9084 35.6457 39.161 31.7509 40.3825 28.7521Z" fill="black"/>
<path d="M28.3876 37.8413C27.6456 37.8083 26.928 37.5607 26.318 37.1273C26.2881 37.0932 26.2716 37.0491 26.2715 37.0033C26.2715 36.9576 26.288 36.9134 26.3179 36.8793C26.3477 36.8452 26.3888 36.8236 26.4333 36.8187C26.4778 36.8137 26.5225 36.8257 26.5588 36.8524C27.1319 37.2515 27.8094 37.4643 28.5027 37.4628C28.5261 37.4599 28.5499 37.4617 28.5726 37.4681C28.5953 37.4746 28.6165 37.4857 28.635 37.5006C28.6535 37.5156 28.669 37.5341 28.6804 37.5552C28.6918 37.5763 28.6991 37.5995 28.7017 37.6235C28.7065 37.6722 28.6924 37.7209 28.6624 37.759C28.6323 37.7972 28.5887 37.8216 28.5411 37.827L28.3876 37.8413Z" fill="#37474F"/>
<path d="M13.3354 41.7789L12.9865 43.7245C12.9865 43.7245 13.2901 44.5492 14.7 44.0993C15.9075 43.7138 15.8796 42.9498 15.8796 42.9498L14.6826 41.4504L13.3354 41.7789Z" fill="#BA68C8"/>
<path opacity="0.7" d="M13.3354 41.7789L12.9865 43.7245C12.9865 43.7245 13.2901 44.5492 14.7 44.0993C15.9075 43.7138 15.8796 42.9498 15.8796 42.9498L14.6826 41.4504L13.3354 41.7789Z" fill="white"/>
<path d="M10.1945 24.7731C6.72894 22.6312 2.30369 23.4772 0.513347 27.7112C-1.3433 32.0915 1.67549 38.4817 12.2081 41.5269C12.8832 41.7096 13.5952 41.6925 14.2612 41.4776C14.9271 41.2628 15.5198 40.8589 15.9703 40.3131C19.7394 35.9328 21.474 30.7028 20.0326 26.5117C18.3749 21.6601 12.1453 21.2496 10.1945 24.7731Z" fill="#BA68C8"/>
<path opacity="0.8" d="M10.1945 24.7731C6.72894 22.6312 2.30369 23.4772 0.513347 27.7112C-1.3433 32.0915 1.67549 38.4817 12.2081 41.5269C12.8832 41.7096 13.5952 41.6925 14.2612 41.4776C14.9271 41.2628 15.5198 40.8589 15.9703 40.3131C19.7394 35.9328 21.474 30.7028 20.0326 26.5117C18.3749 21.6601 12.1453 21.2496 10.1945 24.7731Z" fill="white"/>
<path opacity="0.3" d="M14.5011 22.4476C12.7561 22.4476 11.0565 23.2223 10.2049 24.7717C10.8208 25.1283 11.3401 25.6362 11.7161 26.2496C11.8103 25.1572 12.1453 22.8617 14.5011 22.4476Z" fill="#BA68C8"/>
<path opacity="0.3" d="M1.54644 32.3294C0.349387 28.9344 1.96523 25.1502 3.64041 24.272C2.23028 24.9939 1.12503 26.2158 0.530863 27.7099C-1.32579 32.0902 1.69302 38.4804 12.2257 41.5256C12.4143 41.5794 12.6069 41.6176 12.8015 41.6398C5.6576 39.4479 2.62832 35.3888 1.54644 32.3294Z" fill="#BA68C8"/>
<path d="M13.1785 42.0467C13.0921 42.0467 13.0059 42.0407 12.9203 42.0288C12.8824 42.013 12.8508 41.9845 12.8308 41.9479C12.8107 41.9114 12.8033 41.869 12.8098 41.8277C12.8162 41.7863 12.8362 41.7484 12.8664 41.7201C12.8966 41.6918 12.9353 41.6748 12.9761 41.6718C13.6684 41.711 14.356 41.5342 14.9479 41.1649C14.9858 41.1351 15.0334 41.1214 15.0809 41.1267C15.1284 41.1321 15.172 41.156 15.2027 41.1935C15.2316 41.2316 15.2449 41.2798 15.2397 41.3278C15.2345 41.3758 15.2112 41.4198 15.1748 41.4505C14.5745 41.8308 13.8845 42.0369 13.1785 42.0467V42.0467Z" fill="#37474F"/>
</svg>
