<svg width="266" height="394" viewBox="0 0 266 394" fill="none" xmlns="http://www.w3.org/2000/svg">
<path d="M86.6891 11.7925C88.6894 25.23 88.4295 38.9073 85.9204 52.259C85.6954 53.4356 85.4517 54.6824 85.8782 55.8027C86.2719 56.6627 86.8571 57.4211 87.5891 58.0199C93.889 63.9213 102.636 68.6931 110.895 66.1947C116.656 64.451 120.898 59.5011 123.79 54.2231C130.821 41.4545 131.59 26.3048 132.138 11.7457L138.748 11.8066C138.302 23.1595 137.834 34.6578 134.529 45.5279C129.588 61.7933 116.679 78.3867 97.803 72.0728C92.3844 70.2634 87.5704 66.9682 83.2392 63.2464C79.0768 74.5665 69.9879 84.9444 58.0818 86.871C45.482 88.924 33.1822 81.1101 24.9324 71.379C10.8701 54.8278 5.13741 32.9844 0 11.8957C1.27029 10.8551 3.28119 11.4269 4.39211 12.6363C5.50303 13.8456 5.88271 15.5331 6.26708 17.1315C10.5936 35.4125 17.1747 53.7262 29.6714 67.7557C36.2338 75.1196 45.318 81.4336 55.1381 80.5523C65.413 79.6148 73.6159 70.8494 77.0096 61.1089C77.3853 60.2059 77.5581 59.2314 77.5159 58.2543C77.3612 56.7777 76.3346 55.5637 75.369 54.4293C64.6383 41.8466 56.2496 27.4426 50.6007 11.9004C52.635 10.5269 55.5366 11.3238 57.3178 13.0113C59.099 14.6987 60.0365 17.0612 60.9974 19.3159C65.6798 30.2969 72.0208 40.4937 79.7986 49.5497C82.032 37.0616 82.0891 24.2814 79.9674 11.7738L86.6891 11.7925Z" fill="#F3DBF5"/>
<path d="M228.775 0H228.937C232.537 10.2254 234.385 21.2582 232.495 31.9172C230.605 42.5763 224.639 52.8017 215.313 58.2846C223.07 72.244 227.044 88.7103 224.128 104.412C221.212 120.113 210.708 134.735 195.825 140.518C200.232 158.641 202.383 177.914 197.144 195.816C191.904 213.717 178.001 229.968 159.726 233.713C159.81 233.695 158.315 244.34 158.069 245.349C157.017 249.306 155.508 253.126 153.573 256.734C150.047 263.402 144.758 270.708 137.777 273.92C122.245 281.078 105.292 280.718 89.4952 274.301C86.2316 272.977 83.0707 271.413 80.0385 269.622C62.0983 259.023 48.8511 242.066 37.4693 224.616C32.5752 217.113 27.7446 208.421 29.6874 199.68C37.5291 217.382 48.2685 233.652 61.4636 247.821C71.3364 258.427 82.8981 267.979 96.6106 272.686C110.323 277.393 126.504 276.607 138.154 267.972C148.379 260.391 153.971 247.584 154.546 234.873C131.853 238.752 108.871 227.141 92.5804 210.868C71.1354 189.448 58.4912 159.459 58.1315 129.15C58.0117 119.044 60.0074 107.539 68.4979 102.06C78.6211 95.5261 92.2349 101.136 101.586 108.734C113.997 118.815 123.419 132.08 131.694 145.757C146.955 170.982 159.056 199.017 160.188 228.473C176.531 224.242 188.508 209.214 192.891 192.914C197.274 176.613 195.148 159.241 191.107 142.845C175.389 144.479 159.648 139.967 147.182 130.255C134.716 120.542 126.492 106.382 124.233 90.7413C122.943 81.7782 124.688 70.897 132.773 66.821C139.681 63.3408 148.101 66.4684 154.529 70.7701C176.037 85.1808 186.678 110.913 194.481 135.606C208.06 130.179 217.337 116.477 219.587 102.032C221.836 87.5855 217.742 72.66 210.458 59.9876C206.635 61.149 202.62 61.5346 198.646 61.1216C194.673 60.7087 190.822 59.5055 187.32 57.5829C182.299 54.7974 177.931 50.1184 177.218 44.4239C176.506 38.7294 180.642 32.3721 186.386 32.15C189.739 32.016 192.842 33.8424 195.553 35.8135C202.322 40.7337 208.064 46.9285 212.457 54.0499C221.17 49.0782 226.54 39.3959 227.954 29.4667C229.368 19.5375 227.21 9.38618 223.641 0.010578L228.775 0ZM154.941 229.708H154.962C155.036 214.369 151.383 199.183 145.844 184.878C138.954 167.075 129.787 149.491 118.444 134.213C115.975 130.871 113.401 127.581 110.686 124.432C105.299 118.205 99.2305 112.486 92.1538 108.213C86.1596 104.591 78.4448 102.098 72.299 105.455C68.2229 107.684 65.7512 112.063 64.4254 116.513C62.6977 122.331 62.5884 128.501 63.015 134.569C64.5841 157.65 73.667 180.055 87.9579 198.235C95.976 208.46 105.729 217.476 117.269 223.424C128.81 229.373 142.184 232.088 154.941 229.708ZM189.651 137.358C184.362 117.197 175.565 97.5147 161.14 82.4587C156.126 77.2262 150.209 72.4626 143.157 70.823C140.657 70.2412 137.988 70.079 135.552 70.89C129.089 73.0479 127.442 81.8488 128.066 87.7442C128.831 94.7962 131.744 101.711 135.21 107.842C140.661 117.479 148.256 126.068 157.776 131.699C167.296 137.33 178.875 139.809 189.704 137.524C189.679 137.464 189.665 137.425 189.651 137.358ZM207.337 55.5942C207.064 54.9531 206.743 54.3331 206.378 53.7396C205.888 53.0732 205.271 52.5055 204.735 51.8743C202.88 49.6812 201.11 47.4069 199.16 45.2984C197.397 43.3873 195.529 41.5361 193.346 40.0728C191.583 38.8987 189.919 37.5553 187.768 37.1498C187.248 37.0424 186.711 37.0352 186.188 37.1287C183.04 37.7492 181.88 40.9508 182.123 43.2991C182.413 46.1588 183.72 48.8191 185.808 50.7954C187.969 52.8863 190.638 54.0358 193.434 54.9631C196.992 56.1443 200.663 56.2889 204.365 56.0456C205.292 55.9751 206.216 55.767 207.337 55.5942V55.5942Z" fill="#F1D7F3"/>
<path d="M257.462 319.758L257.369 319.868C256.157 321.27 254.312 321.924 252.529 322.432C240.004 325.974 226.669 325.377 214.51 320.73C202.377 316.014 192.09 307.506 185.181 296.472C179.911 300.874 175.122 306.02 172.233 312.238C169.345 318.456 168.521 325.848 171.092 332.207C173.43 337.992 178.344 342.446 183.856 345.365C189.368 348.284 195.501 349.836 201.577 351.204C201.558 347.883 202.408 344.615 204.043 341.725C205.678 338.835 208.041 336.423 210.897 334.729C213.753 333.035 217.003 332.118 220.324 332.07C223.644 332.022 226.919 332.843 229.824 334.453C232.912 336.162 235.664 339.093 235.817 342.621C235.996 346.659 232.773 350.058 229.32 352.162C222.686 356.207 214.635 357.326 206.87 357.08C208.279 367.303 216.832 375.611 226.666 378.75C236.5 381.889 247.286 380.522 257.04 377.118C258.741 376.525 261.15 376.145 261.886 377.773C262.621 379.401 260.757 380.955 259.138 381.701C252.986 384.484 246.308 385.911 239.557 385.886C232.805 385.861 226.138 384.384 220.008 381.556C211.322 377.477 203.598 369.947 202.142 360.462C201.918 359.004 201.741 357.334 200.549 356.466C199.831 355.943 198.903 355.842 198.024 355.729C177.681 353.172 158.698 335.217 165.93 313.63C168.927 304.694 175.39 297.324 182.685 291.321C177.877 281.168 175.834 269.925 176.763 258.73L180.09 258.42C179.596 268.979 181.879 279.483 186.713 288.883C205.152 278.777 228.066 278.977 247.85 286.088C250.081 286.894 252.355 287.816 254.017 289.529C255.679 291.243 256.544 293.895 255.509 296.046C235.655 284.273 209.801 283.309 189.141 293.564C196.186 304.612 206.895 312.828 219.391 316.77C231.915 320.625 245.397 319.947 257.471 314.856C258.819 316.067 258.596 318.345 257.462 319.758ZM207 351.588C209.848 351.802 212.529 351.47 215.209 351.208C218.836 350.9 222.371 349.895 225.618 348.249C227.058 347.511 228.354 346.522 229.446 345.328C230.446 344.225 230.822 342.27 230.094 341.381C229.505 340.595 228.751 339.947 227.885 339.485C224.447 337.859 220.599 337.307 216.843 337.902C213.595 338.415 211.163 339.99 209.543 342.965C208.081 345.645 207.431 348.489 207.001 351.603L207 351.588Z" fill="#F1E8FB"/>
</svg>
