<svg width="70" height="15" viewBox="0 0 70 15" fill="none" xmlns="http://www.w3.org/2000/svg">
<path d="M35.7188 0.101704C35.6076 0.0950297 35.4963 0.0894674 35.3851 0.0894674H35.285C35.1737 0.0894674 35.0625 0.0950297 34.9512 0.101704C31.0822 0.32419 27.8083 3.2343 27.8161 7.49379C27.8228 11.2093 30.7551 14.7891 35.2861 14.7958H35.3862C39.9182 14.7891 42.8528 11.2093 42.8572 7.49379C42.8584 3.2343 39.5834 0.31974 35.7188 0.101704ZM38.422 11.3973C37.5151 12.1058 36.3958 12.4879 35.2449 12.4819C34.4161 12.4711 33.5964 12.3082 32.8265 12.0013C32.6974 11.9524 32.5895 11.9035 32.5528 11.7967C32.5161 11.6899 32.5729 11.5909 32.6429 11.4785C32.6941 11.3962 32.8587 10.9924 33.0045 10.6364C33.1257 10.3405 33.2392 10.0613 33.3104 9.90887C33.3516 9.83779 33.4143 9.78162 33.4895 9.74843C33.5646 9.71525 33.6484 9.70677 33.7287 9.7242C34.8756 10.1325 35.9201 10.0435 36.7511 9.46946C37.69 8.8198 38.1272 7.70626 38.1372 7.12446C38.1341 7.07813 38.1416 7.0317 38.1591 6.98871C38.1767 6.94571 38.2038 6.9073 38.2384 6.87639C38.2835 6.84822 38.3344 6.83076 38.3872 6.82536C38.4401 6.81996 38.4935 6.82676 38.5433 6.84524C38.9882 6.9487 40.154 7.0922 40.2675 7.1011H40.3454C40.4733 7.10778 40.6324 7.11556 40.6602 7.36141C40.7503 8.23578 40.0072 10.167 38.4187 11.3973H38.422ZM12.4068 8.79199C12.0107 8.04667 11.3155 7.52716 10.5156 7.13114C9.4477 6.60162 8.18955 6.28903 7.1917 5.95196C6.63549 5.76507 5.35731 5.42356 5.55866 4.65265C5.62206 4.40902 5.87458 4.23882 6.13489 4.16429C7.31852 3.83056 8.78247 4.22325 9.86041 4.68824C10.3588 4.90294 10.8305 5.13322 11.2009 5.33345C11.2401 5.3551 11.2843 5.36625 11.3291 5.36584C11.3739 5.36542 11.4178 5.35344 11.4566 5.33107C11.4955 5.30869 11.5278 5.27668 11.5507 5.23812C11.5735 5.19956 11.586 5.15576 11.5869 5.11097V1.0773C10.3833 0.563361 8.78581 0.198484 6.82349 0.0360697C2.564 -0.315458 0.234575 1.95946 0.0132024 4.37454C-0.171461 6.37691 1.61287 7.32358 3.37162 8.09783C4.42398 8.56394 5.55754 8.87097 6.59766 9.3571C6.91804 9.50728 7.44422 9.66191 7.37636 10.2993C7.2996 11.038 6.23946 10.949 5.67212 10.9012C4.61309 10.8144 2.77202 10.2604 1.07335 9.15464C1.03464 9.12818 0.989509 9.11267 0.942717 9.10974C0.895924 9.10681 0.849209 9.11657 0.807505 9.13799C0.765801 9.15941 0.730657 9.1917 0.705784 9.23144C0.680912 9.27118 0.667235 9.31691 0.666198 9.36378V13.512C2.07119 14.1684 3.82327 14.5844 5.6165 14.7357C7.48093 14.8903 9.58231 14.709 11.103 13.5387C12.5291 12.4352 13.2856 10.4417 12.4068 8.79199ZM26.6458 0.398722C24.2608 0.385373 16.1034 0.385373 13.7161 0.398722C13.5709 0.400748 13.4322 0.459483 13.3298 0.562377C13.2273 0.66527 13.1691 0.804161 13.1677 0.949374V4.00966C13.1691 4.15487 13.2273 4.29377 13.3298 4.39666C13.4322 4.49955 13.5709 4.55829 13.7161 4.56032C14.6572 4.56588 16.4604 4.58034 17.3871 4.58701C17.5274 4.58789 17.6616 4.64415 17.7606 4.74354C17.8595 4.84292 17.9152 4.97738 17.9155 5.11764L17.9378 13.8224C17.9378 13.9699 17.9964 14.1114 18.1007 14.2157C18.205 14.32 18.3464 14.3786 18.494 14.3786H21.8724C21.9455 14.3786 22.0178 14.3642 22.0853 14.3363C22.1527 14.3083 22.2141 14.2673 22.2657 14.2157C22.3174 14.164 22.3583 14.1027 22.3863 14.0352C22.4142 13.9678 22.4286 13.8954 22.4286 13.8224L22.452 5.11764C22.4517 4.97759 22.5069 4.84312 22.6055 4.74367C22.7041 4.64423 22.8381 4.5879 22.9782 4.58701C23.9059 4.58034 25.7092 4.56588 26.6492 4.56032C26.7946 4.55858 26.9335 4.49997 27.0362 4.39704C27.1389 4.29412 27.1973 4.15506 27.1987 4.00966V0.949374C27.1973 0.803399 27.1385 0.663849 27.035 0.560832C26.9316 0.457815 26.7918 0.399591 26.6458 0.398722ZM69.9816 0.998321C69.9784 0.836707 69.9119 0.682794 69.7965 0.569643C69.681 0.456492 69.5258 0.393128 69.3642 0.39316H66.8167C66.7352 0.393011 66.6544 0.409017 66.5791 0.440257C66.5037 0.471496 66.4354 0.517349 66.3778 0.575167C66.3203 0.632984 66.2749 0.701622 66.244 0.777115C66.2132 0.852609 66.1976 0.933461 66.1982 1.01501L66.2093 2.91615C66.2093 3.68706 66.2905 4.45797 66.1871 5.2033C66.0158 6.44588 64.6497 6.68616 63.6207 6.61942C62.7775 6.56491 61.8853 6.1255 61.7574 5.2033C61.6539 4.45797 61.7351 3.68706 61.7351 2.91615L61.7463 1.01501C61.747 0.933608 61.7316 0.852871 61.701 0.777456C61.6703 0.702042 61.625 0.633446 61.5677 0.575628C61.5104 0.517811 61.4423 0.471916 61.3671 0.440598C61.292 0.409279 61.2114 0.393156 61.13 0.39316H58.5781C58.4165 0.393133 58.2614 0.456534 58.1462 0.569715C58.0309 0.682895 57.9647 0.836807 57.9618 0.998321C57.9395 2.07404 57.9284 4.3445 57.9918 6.05319C58.0797 8.32811 59.2044 9.54956 60.9442 10.266C61.0722 10.3183 61.1817 10.4076 61.2586 10.5226C61.3355 10.6375 61.3764 10.7729 61.3758 10.9112V13.7812C61.3761 13.9448 61.4413 14.1015 61.5571 14.2171C61.6728 14.3326 61.8297 14.3975 61.9932 14.3975H65.2738C65.3547 14.3975 65.4348 14.3816 65.5096 14.3506C65.5844 14.3196 65.6523 14.2742 65.7096 14.217C65.7668 14.1598 65.8122 14.0918 65.8431 14.0171C65.8741 13.9423 65.8901 13.8622 65.8901 13.7812V11.1681C65.8909 11.0138 65.9424 10.864 66.0367 10.7418C66.1309 10.6196 66.2627 10.5318 66.4118 10.4918C68.4842 9.93557 69.8603 8.57729 69.9527 6.05319C70.0161 4.3445 70.0049 2.07404 69.9816 0.998321ZM56.7826 11.7588C56.5601 11.7344 56.3532 11.6954 56.2197 11.5764C55.6079 11.0313 55.0584 10.415 54.4832 9.79651C54.4435 9.75353 54.4126 9.70313 54.3924 9.64819C54.3722 9.59326 54.363 9.53488 54.3654 9.47639C54.3677 9.4179 54.3816 9.36045 54.4063 9.30734C54.4309 9.25423 54.4657 9.2065 54.5088 9.16688C55.609 8.16569 56.3176 7.01211 56.3543 5.57485C56.4289 2.6703 54.3153 0.597846 51.2583 0.479929C50.4362 0.448781 49.6108 0.43877 48.7876 0.43877C47.4594 0.43877 46.13 0.465467 44.8018 0.467692C44.7263 0.467692 44.6516 0.482576 44.5818 0.511493C44.5121 0.540409 44.4488 0.58279 44.3955 0.63621C44.3422 0.68963 44.2999 0.753041 44.2711 0.822812C44.2423 0.892583 44.2276 0.967343 44.2278 1.04282V13.8124C44.2276 13.8893 44.2426 13.9655 44.272 14.0366C44.3013 14.1078 44.3444 14.1724 44.3988 14.2269C44.4531 14.2813 44.5177 14.3245 44.5887 14.354C44.6598 14.3835 44.736 14.3986 44.8129 14.3986H47.9722C48.1277 14.3986 48.2768 14.3369 48.3867 14.2269C48.4967 14.117 48.5584 13.9679 48.5584 13.8124V10.6297C48.5575 10.5248 48.5945 10.423 48.6625 10.3431C48.7305 10.2632 48.8251 10.2106 48.9289 10.1948C49.3805 10.1325 49.672 10.3739 49.9301 10.7721C50.3528 11.4396 50.79 12.0981 51.265 12.7244C52.1805 13.9203 53.3853 14.6823 54.9204 14.442C56.1864 14.2462 56.9228 13.4575 57.2154 12.4118C57.2358 12.3402 57.2406 12.2651 57.2292 12.1915C57.2178 12.1179 57.1907 12.0476 57.1495 11.9856C57.1084 11.9235 57.0543 11.8711 56.9909 11.832C56.9276 11.7928 56.8565 11.7679 56.7826 11.7588ZM52.0793 5.49475C52.0281 6.31239 51.3006 6.96538 50.2738 7.05883C49.8112 7.08687 49.3474 7.09133 48.8844 7.07218C48.7959 7.07218 48.711 7.03702 48.6484 6.97443C48.5858 6.91184 48.5506 6.82696 48.5506 6.73845V4.09087C48.5506 4.00407 48.5844 3.92066 48.6448 3.85836C48.7053 3.79605 48.7876 3.75975 48.8744 3.75714C49.5062 3.74157 50.1359 3.69818 50.7455 3.78162C51.5553 3.88952 52.1271 4.71605 52.0793 5.49475Z" fill="#682873"/>
</svg>
