<svg width="50" height="50" viewBox="0 0 50 50" fill="none" xmlns="http://www.w3.org/2000/svg">
<rect width="50" height="50" rx="16" fill="white"/>
<path d="M35.8074 13.6659C32.8145 10.8023 28.8288 9.22729 24.5931 9.22729C15.8502 9.22729 8.73593 16.0182 8.73593 24.3637C8.73593 27.0296 9.46451 29.6341 10.8502 31.9318L8.60022 39.7728L17.0074 37.6659C19.3216 38.8728 21.9288 39.5068 24.5859 39.5068H24.5931C33.3288 39.5068 40.6002 32.7159 40.6002 24.3705C40.6002 20.3273 38.8002 16.5296 35.8074 13.6659V13.6659ZM24.5931 36.9568C22.2216 36.9568 19.9002 36.35 17.8788 35.2046L17.4002 34.9318L12.4145 36.1796L13.7431 31.5364L13.4288 31.0591C12.1074 29.0546 11.4145 26.7432 11.4145 24.3637C11.4145 17.4296 17.3288 11.7841 24.6002 11.7841C28.1216 11.7841 31.4288 13.0932 33.9145 15.4727C36.4002 17.8523 37.9288 21.0091 37.9216 24.3705C37.9216 31.3114 31.8574 36.9568 24.5931 36.9568V36.9568ZM31.8216 27.5341C31.4288 27.3432 29.4788 26.4296 29.1145 26.3068C28.7502 26.1773 28.4859 26.1159 28.2217 26.4977C27.9574 26.8796 27.2002 27.725 26.9645 27.9841C26.7359 28.2364 26.5002 28.2705 26.1074 28.0796C23.7788 26.9682 22.2502 26.0955 20.7145 23.5796C20.3074 22.9114 21.1216 22.9591 21.8788 21.5137C22.0074 21.2614 21.9431 21.0432 21.8431 20.8523C21.7431 20.6614 20.9502 18.8 20.6216 18.0432C20.3002 17.3068 19.9716 17.4091 19.7288 17.3955C19.5002 17.3818 19.2359 17.3818 18.9716 17.3818C18.7074 17.3818 18.2788 17.4773 17.9145 17.8523C17.5502 18.2341 16.5288 19.1478 16.5288 21.0091C16.5288 22.8705 17.9502 24.6705 18.1431 24.9228C18.3431 25.175 20.9359 28.9932 24.9145 30.6364C27.4288 31.6728 28.4145 31.7614 29.6716 31.5841C30.4359 31.475 32.0145 30.6705 32.3431 29.7841C32.6716 28.8978 32.6716 28.1409 32.5716 27.9841C32.4788 27.8137 32.2145 27.7182 31.8216 27.5341Z" fill="#009543"/>
</svg>
