<svg width="50" height="50" viewBox="0 0 50 50" fill="none" xmlns="http://www.w3.org/2000/svg">
<rect width="50" height="50" rx="16" fill="white"/>
<path d="M25.0355 7.54633C16.0013 7.54633 9 14.7491 9 24.4779C9 29.5665 10.9168 33.9639 14.0368 37.0016C14.5755 37.5301 14.4645 37.8363 14.5561 41.0999C14.5633 41.3285 14.6217 41.5517 14.7262 41.75C14.8306 41.9484 14.9779 42.1158 15.1553 42.2377C15.3327 42.3597 15.5348 42.4325 15.7438 42.4497C15.9529 42.4669 16.1627 42.428 16.3548 42.3365C19.7684 40.6966 19.8123 40.5671 20.391 40.7388C30.2806 43.7082 41 36.8038 41 24.4779C41 14.7491 34.0703 7.54633 25.0355 7.54633ZM34.6639 20.576L29.9542 28.71C29.7763 29.0158 29.5425 29.2783 29.2673 29.481C28.9921 29.6837 28.6816 29.8221 28.355 29.8878C28.0285 29.9534 27.6931 29.9447 27.3697 29.8623C27.0464 29.7799 26.7422 29.6255 26.4761 29.4088L22.729 26.3494C22.5615 26.2123 22.3578 26.1382 22.1484 26.1382C21.939 26.1382 21.7353 26.2123 21.5677 26.3494L16.5116 30.5328C15.8368 31.091 14.9529 30.2091 15.4077 29.43L20.1174 21.296C20.2952 20.9901 20.529 20.7275 20.8042 20.5248C21.0794 20.322 21.39 20.1835 21.7165 20.1179C22.0431 20.0523 22.3786 20.061 22.7019 20.1434C23.0252 20.2259 23.3294 20.3804 23.5955 20.5971L27.3413 23.6559C27.5088 23.7929 27.7125 23.867 27.9219 23.867C28.1313 23.867 28.3351 23.7929 28.5026 23.6559L33.5613 19.4766C34.2348 18.915 35.1187 19.7962 34.6639 20.576V20.576Z" fill="#0085FF"/>
</svg>
