<svg width="50" height="50" viewBox="0 0 50 50" fill="none" xmlns="http://www.w3.org/2000/svg">
<rect width="50" height="50" rx="16" fill="white"/>
<path d="M25 9.72726C16.1625 9.72726 9 16.075 9 23.9091C9 27.2909 10.3375 30.3864 12.5625 32.8204C11.7812 36.2568 9.16875 39.3182 9.1375 39.3523C9 39.5091 8.9625 39.7409 9.04375 39.9454C9.125 40.15 9.3 40.2727 9.5 40.2727C13.6438 40.2727 16.75 38.1045 18.2875 36.7682C20.3313 37.6068 22.6 38.0909 25 38.0909C33.8375 38.0909 41 31.7432 41 23.9091C41 16.075 33.8375 9.72726 25 9.72726ZM17.0125 28.2727H16.25C15.975 28.2727 15.75 28.0273 15.75 27.7273V26.6364C15.75 26.3364 15.975 26.0909 16.25 26.0909H17.0188C17.3938 26.0909 17.6687 25.8523 17.6687 25.6409C17.6687 25.5523 17.6188 25.4568 17.5375 25.3818L16.1687 24.1C15.6375 23.6091 15.3375 22.9068 15.3375 22.1841C15.3375 20.7318 16.525 19.5523 17.9875 19.5523H18.75C19.025 19.5523 19.25 19.7977 19.25 20.0977V21.1886C19.25 21.4886 19.025 21.7341 18.75 21.7341H17.9812C17.6062 21.7341 17.3313 21.9727 17.3313 22.1841C17.3313 22.2727 17.3812 22.3682 17.4625 22.4432L18.8313 23.725C19.3625 24.2159 19.6625 24.9182 19.6625 25.6409C19.6688 27.0932 18.475 28.2727 17.0125 28.2727ZM29 27.7273C29 28.0273 28.775 28.2727 28.5 28.2727H27.5C27.225 28.2727 27 28.0273 27 27.7273V23.0773L25.45 26.8818C25.2688 27.2841 24.7375 27.2841 24.5562 26.8818L23 23.0773V27.7273C23 28.0273 22.775 28.2727 22.5 28.2727H21.5C21.225 28.2727 21 28.0273 21 27.7273V20.6364C21 20.0364 21.45 19.5454 22 19.5454H23C23.3812 19.5454 23.725 19.7773 23.8938 20.1454L25 22.5591L26.1063 20.1454C26.275 19.7773 26.625 19.5454 27 19.5454H28C28.55 19.5454 29 20.0364 29 20.6364V27.7273ZM32.0187 28.2727H31.25C30.975 28.2727 30.75 28.0273 30.75 27.7273V26.6364C30.75 26.3364 30.975 26.0909 31.25 26.0909H32.0187C32.3937 26.0909 32.6688 25.8523 32.6688 25.6409C32.6688 25.5523 32.6188 25.4568 32.5375 25.3818L31.1688 24.1C30.6375 23.6091 30.3375 22.9068 30.3375 22.1841C30.3375 20.7318 31.525 19.5523 32.9875 19.5523H33.75C34.025 19.5523 34.25 19.7977 34.25 20.0977V21.1886C34.25 21.4886 34.025 21.7341 33.75 21.7341H32.9813C32.6063 21.7341 32.3312 21.9727 32.3312 22.1841C32.3312 22.2727 32.3812 22.3682 32.4625 22.4432L33.8312 23.725C34.3625 24.2159 34.6625 24.9182 34.6625 25.6409C34.6688 27.0932 33.4812 28.2727 32.0187 28.2727Z" fill="#EF7251"/>
</svg>
