<svg width="50" height="50" viewBox="0 0 50 50" fill="none" xmlns="http://www.w3.org/2000/svg">
<rect width="50" height="50" rx="16" fill="white"/>
<path d="M37.7107 17.8897C37.7311 18.1998 37.7311 18.5099 37.7311 18.82C37.7311 28.2782 31.1321 39.1763 19.0711 39.1763C15.3553 39.1763 11.9036 38.0023 9 35.9645C9.52794 36.031 10.0355 36.0531 10.5838 36.0531C13.6497 36.0531 16.4721 34.9235 18.7259 32.9964C15.8427 32.9299 13.4264 30.8699 12.5939 28.0346C13 28.101 13.4061 28.1454 13.8325 28.1454C14.4213 28.1454 15.0102 28.0567 15.5584 27.9017C12.5533 27.2372 10.2994 24.3576 10.2994 20.88V20.7914C11.1725 21.3231 12.1878 21.6553 13.2639 21.6996C11.4974 20.4148 10.3401 18.2219 10.3401 15.7411C10.3401 14.4121 10.6649 13.1938 11.2334 12.1305C14.4619 16.472 19.3147 19.3073 24.7563 19.6174C24.6548 19.0858 24.5939 18.5321 24.5939 17.9783C24.5939 14.0355 27.5178 10.8237 31.1523 10.8237C33.0406 10.8237 34.7462 11.6876 35.9442 13.083C37.4264 12.773 38.8477 12.1749 40.1066 11.3553C39.6192 13.0166 38.5837 14.4121 37.2234 15.2981C38.5432 15.1431 39.8224 14.7443 41 14.1906C40.1067 15.6082 38.9899 16.8707 37.7107 17.8897V17.8897Z" fill="#00C2FF"/>
</svg>
